<svg width="318" height="88" viewBox="0 0 318 88" fill="none" xmlns="http://www.w3.org/2000/svg">
<g filter="url(#filter0_d_1_469)">
<rect x="15" y="13" width="286" height="56" rx="8" fill="#AF9678"/>
<path d="M94.08 31.8V50H92.26V33.516H82.9V50H81.08V31.8H94.08ZM108.878 48.362C107.561 49.662 105.949 50.312 104.042 50.312C102.135 50.312 100.515 49.662 99.1801 48.362C97.8627 47.0447 97.2041 45.424 97.2041 43.5C97.2041 41.576 97.8627 39.964 99.1801 38.664C100.515 37.3467 102.135 36.688 104.042 36.688C105.949 36.688 107.561 37.3467 108.878 38.664C110.213 39.964 110.88 41.576 110.88 43.5C110.88 45.424 110.213 47.0447 108.878 48.362ZM100.402 47.166C101.39 48.154 102.603 48.648 104.042 48.648C105.481 48.648 106.694 48.154 107.682 47.166C108.67 46.1607 109.164 44.9387 109.164 43.5C109.164 42.0613 108.67 40.848 107.682 39.86C106.694 38.8547 105.481 38.352 104.042 38.352C102.603 38.352 101.39 38.8547 100.402 39.86C99.4141 40.848 98.9201 42.0613 98.9201 43.5C98.9201 44.9387 99.4141 46.1607 100.402 47.166ZM124.164 48.336H125.984V53.484H124.268V50H113.66V53.484H111.944V48.336H113.53C114.414 47.1747 114.856 45.5367 114.856 43.422V37H124.164V48.336ZM115.61 48.336H122.448V38.664H116.572V43.422C116.572 45.4153 116.251 47.0533 115.61 48.336ZM139.5 37V50H137.784V38.664H130.296V50H128.58V37H139.5ZM152.593 37H154.049V50H152.333V39.99L144.585 50H143.129V37H144.845V47.01L152.593 37ZM163.735 50.312C161.777 50.312 160.147 49.662 158.847 48.362C157.547 47.0447 156.897 45.424 156.897 43.5C156.897 41.576 157.547 39.964 158.847 38.664C160.147 37.3467 161.777 36.688 163.735 36.688C165.018 36.688 166.171 37 167.193 37.624C168.216 38.2307 168.961 39.054 169.429 40.094L168.025 40.9C167.679 40.12 167.115 39.5047 166.335 39.054C165.573 38.586 164.706 38.352 163.735 38.352C162.297 38.352 161.083 38.8547 160.095 39.86C159.107 40.848 158.613 42.0613 158.613 43.5C158.613 44.9387 159.107 46.1607 160.095 47.166C161.083 48.154 162.297 48.648 163.735 48.648C164.706 48.648 165.573 48.4227 166.335 47.972C167.098 47.504 167.696 46.88 168.129 46.1L169.559 46.932C169.022 47.972 168.233 48.7953 167.193 49.402C166.153 50.0087 165.001 50.312 163.735 50.312ZM183.076 37H184.792V50H183.076V47.452C181.88 49.3587 180.13 50.312 177.824 50.312C175.97 50.312 174.384 49.6533 173.066 48.336C171.766 47.0187 171.116 45.4067 171.116 43.5C171.116 41.5933 171.766 39.9813 173.066 38.664C174.384 37.3467 175.97 36.688 177.824 36.688C180.13 36.688 181.88 37.6413 183.076 39.548V37ZM174.314 47.166C175.302 48.154 176.516 48.648 177.954 48.648C179.393 48.648 180.606 48.154 181.594 47.166C182.582 46.1607 183.076 44.9387 183.076 43.5C183.076 42.0613 182.582 40.848 181.594 39.86C180.606 38.8547 179.393 38.352 177.954 38.352C176.516 38.352 175.302 38.8547 174.314 39.86C173.326 40.848 172.832 42.0613 172.832 43.5C172.832 44.9387 173.326 46.1607 174.314 47.166ZM197.785 37V38.664H193.183V50H191.467V38.664H186.865V37H197.785ZM205.155 41.94C206.368 41.94 207.391 42.3213 208.223 43.084C209.072 43.8293 209.497 44.7913 209.497 45.97C209.497 47.1487 209.072 48.1193 208.223 48.882C207.391 49.6273 206.368 50 205.155 50H199.877V37H201.593V41.94H205.155ZM205.155 48.336C205.883 48.336 206.498 48.1193 207.001 47.686C207.521 47.2527 207.781 46.6807 207.781 45.97C207.781 45.2593 207.521 44.6873 207.001 44.254C206.498 43.8207 205.883 43.604 205.155 43.604H201.593V48.336H205.155ZM218.021 50.312C216.062 50.312 214.433 49.662 213.133 48.362C211.833 47.0447 211.183 45.424 211.183 43.5C211.183 41.576 211.833 39.964 213.133 38.664C214.433 37.3467 216.062 36.688 218.021 36.688C219.303 36.688 220.456 37 221.479 37.624C222.501 38.2307 223.247 39.054 223.715 40.094L222.311 40.9C221.964 40.12 221.401 39.5047 220.621 39.054C219.858 38.586 218.991 38.352 218.021 38.352C216.582 38.352 215.369 38.8547 214.381 39.86C213.393 40.848 212.899 42.0613 212.899 43.5C212.899 44.9387 213.393 46.1607 214.381 47.166C215.369 48.154 216.582 48.648 218.021 48.648C218.991 48.648 219.858 48.4227 220.621 47.972C221.383 47.504 221.981 46.88 222.415 46.1L223.845 46.932C223.307 47.972 222.519 48.7953 221.479 49.402C220.439 50.0087 219.286 50.312 218.021 50.312ZM235.414 37V50H233.698V45.008H231.462L227.458 50H225.274L229.382 44.956C228.342 44.8 227.484 44.3667 226.808 43.656C226.132 42.9453 225.794 42.07 225.794 41.03C225.794 39.8513 226.21 38.8893 227.042 38.144C227.892 37.3813 228.923 37 230.136 37H235.414ZM230.136 43.396H233.698V38.664H230.136C229.408 38.664 228.784 38.8807 228.264 39.314C227.762 39.7473 227.51 40.3193 227.51 41.03C227.51 41.7407 227.762 42.3127 228.264 42.746C228.784 43.1793 229.408 43.396 230.136 43.396Z" fill="white"/>
</g>
<defs>
<filter id="filter0_d_1_469" x="0" y="0" width="318" height="88" filterUnits="userSpaceOnUse" color-interpolation-filters="sRGB">
<feFlood flood-opacity="0" result="BackgroundImageFix"/>
<feColorMatrix in="SourceAlpha" type="matrix" values="0 0 0 0 0 0 0 0 0 0 0 0 0 0 0 0 0 0 127 0" result="hardAlpha"/>
<feOffset dx="1" dy="3"/>
<feGaussianBlur stdDeviation="8"/>
<feColorMatrix type="matrix" values="0 0 0 0 0.999743 0 0 0 0 0.859825 0 0 0 0 0.691924 0 0 0 0.22 0"/>
<feBlend mode="normal" in2="BackgroundImageFix" result="effect1_dropShadow_1_469"/>
<feBlend mode="normal" in="SourceGraphic" in2="effect1_dropShadow_1_469" result="shape"/>
</filter>
</defs>
</svg>
