<svg width="26" height="26" viewBox="0 0 26 26" fill="none" xmlns="http://www.w3.org/2000/svg">
<path d="M12.7562 3.25C11.2125 3.25 7.39375 3.4125 5.3625 5.3625C3.9 6.74375 3.33125 8.85625 3.25 11.375C3.0875 15.3563 3.98125 17.875 5.44375 19.175C5.76875 19.4188 6.58125 20.0688 8.125 20.5563V22.5875C8.125 22.5875 8.125 23.4 8.6125 23.5625C8.69375 23.5625 8.775 23.6438 8.85625 23.6438C9.34375 23.6438 9.75 23.075 10.3187 22.5063C10.8062 21.9375 11.2125 21.5313 11.4562 21.125H13.2437C14.7875 21.125 18.6062 20.9625 20.6375 19.0125C22.1 17.55 22.6687 15.4375 22.6687 12.7563C22.75 12.35 22.75 11.8625 22.75 11.375C22.6687 8.36875 21.775 6.3375 20.5562 5.2C20.0687 4.79375 17.9562 3.25 13.4062 3.25H12.7562ZM12.5937 4.79375H13.325C17.6312 4.79375 19.2562 6.175 19.4187 6.3375C20.3937 7.15 20.9625 8.9375 21.0437 11.2937V11.6188C21.125 12.1063 21.125 12.5125 21.125 12.7563C21.0437 15.1938 20.5562 16.8188 19.5812 17.875C17.875 19.4188 14.3 19.5 13.325 19.5H11.7812L10.4812 20.9625L9.66875 21.8563L9.50625 22.1C9.34375 22.2625 9.1 22.5875 8.9375 22.6688V19.0125C7.3125 18.6063 6.6625 18.0375 6.5 17.875C5.3625 16.9 4.7125 14.5438 4.875 11.375V10.5625C5.0375 8.6125 5.525 7.3125 6.3375 6.41875C8.04375 4.875 11.6187 4.79375 12.5937 4.79375ZM12.5125 6.58125C12.1062 6.58125 12.1062 7.15 12.5125 7.15C15.5187 7.15 18.1187 9.18125 18.1187 13C18.1187 13.4063 18.6875 13.4063 18.6875 13C18.6875 8.85625 15.925 6.5 12.5125 6.58125ZM9.29256 7.33281C9.10846 7.31075 8.92303 7.36148 8.77581 7.47419C7.96331 7.88044 7.15 8.69456 7.39375 9.58831C7.39375 9.58831 7.55625 10.3188 8.45 11.8625C8.9375 12.5938 9.34375 13.2438 9.75 13.7313C10.1562 14.3 10.8062 14.95 11.4562 15.4375C12.7562 16.4938 14.7875 17.55 15.6812 17.7938C16.4937 18.0375 17.3875 17.225 17.7937 16.4125C17.9562 16.0875 17.875 15.6813 17.55 15.4375C17.0625 14.95 16.25 14.3813 15.6812 14.0563C15.275 13.8125 14.7875 13.975 14.625 14.2188L14.2187 14.7063C14.0562 14.95 13.65 14.95 13.65 14.95C10.9687 14.2188 10.2375 11.4563 10.2375 11.4563C10.2375 11.4563 10.2375 11.1313 10.4812 10.8875L10.9687 10.4813C11.2125 10.3188 11.375 9.83125 11.1312 9.425C10.9687 9.18125 10.725 8.69375 10.4812 8.45C10.2375 8.125 9.75 7.55625 9.75 7.55625C9.62672 7.43281 9.4657 7.35416 9.29256 7.33281ZM13.0812 8.20625C12.675 8.125 12.5937 8.775 13 8.775C15.275 8.9375 16.575 10.4813 16.4937 12.4313C16.4125 12.8375 17.0625 12.8375 17.0625 12.4313C17.1437 10.1563 15.6812 8.2875 13.0812 8.20625ZM13.325 9.75C12.9187 9.66875 12.9187 10.3188 13.325 10.3188C14.3 10.3188 14.7875 10.8875 14.7875 11.8625C14.8687 12.2688 15.4375 12.2688 15.4375 11.8625C15.3562 10.5625 14.625 9.75 13.325 9.75Z" fill="white"/>
</svg>
