<svg width="26" height="26" viewBox="0 0 26 26" fill="none" xmlns="http://www.w3.org/2000/svg">
<path d="M13.0433 2.16657C7.12832 2.16657 2.30749 6.9874 2.30749 12.9024C2.30749 14.7982 2.80583 16.6399 3.73749 18.2649L2.22083 23.8332L7.90832 22.3382C9.47916 23.1941 11.245 23.6491 13.0433 23.6491C18.9583 23.6491 23.7792 18.8282 23.7792 12.9132C23.7792 10.0424 22.6633 7.3449 20.6375 5.31907C19.6443 4.31582 18.4613 3.52038 17.1574 2.97912C15.8536 2.43787 14.455 2.16165 13.0433 2.16657ZM13.0542 3.97574C15.4375 3.97574 17.6692 4.9074 19.3592 6.5974C20.1886 7.42654 20.8461 8.41125 21.2942 9.49506C21.7422 10.5789 21.9719 11.7405 21.97 12.9132C21.97 17.8316 17.9617 21.8291 13.0433 21.8291C11.44 21.8291 9.86916 21.4066 8.50416 20.5832L8.17916 20.3991L4.79916 21.2874L5.69833 17.9941L5.48166 17.6474C4.58676 16.2268 4.11342 14.5814 4.11666 12.9024C4.12749 7.98407 8.12499 3.97574 13.0542 3.97574ZM9.24082 7.94074C9.06749 7.94074 8.77499 8.00574 8.52582 8.27657C8.28749 8.5474 7.58332 9.20824 7.58332 10.5191C7.58332 11.8407 8.54749 13.1082 8.66666 13.2924C8.81832 13.4766 10.5733 16.1849 13.2708 17.3332C13.91 17.6257 14.4083 17.7882 14.7983 17.9074C15.4375 18.1132 16.0225 18.0807 16.4883 18.0157C17.0083 17.9399 18.07 17.3657 18.2975 16.7374C18.525 16.1091 18.525 15.5782 18.46 15.4591C18.3842 15.3507 18.2108 15.2857 17.94 15.1666C17.6692 15.0149 16.3475 14.3649 16.1092 14.2782C15.86 14.1916 15.7083 14.1482 15.5025 14.4082C15.3292 14.6791 14.8092 15.2857 14.6575 15.4591C14.495 15.6432 14.3433 15.6649 14.0833 15.5349C13.8017 15.3941 12.935 15.1124 11.9167 14.2024C11.115 13.4874 10.5842 12.6099 10.4217 12.3391C10.2917 12.0791 10.4108 11.9166 10.5408 11.7974C10.66 11.6782 10.8333 11.4832 10.9417 11.3207C11.0825 11.1691 11.1258 11.0499 11.2125 10.8766C11.2992 10.6924 11.2558 10.5407 11.1908 10.4107C11.1258 10.2916 10.5842 8.94824 10.3567 8.4174C10.14 7.8974 9.92332 7.9624 9.74999 7.95157C9.59832 7.95157 9.42499 7.94074 9.24082 7.94074Z" fill="white"/>
</svg>
