<svg width="26" height="26" viewBox="0 0 26 26" fill="none" xmlns="http://www.w3.org/2000/svg">
<path d="M23.487 3.22323C23.2631 3.02991 22.9906 2.90153 22.699 2.852C22.4073 2.80246 22.1077 2.83366 21.8325 2.9422L3.08847 10.306C2.76181 10.4344 2.4855 10.6651 2.30086 10.9636C2.11623 11.2621 2.03321 11.6123 2.06422 11.9619C2.09522 12.3115 2.23859 12.6417 2.47287 12.9031C2.70715 13.1644 3.01975 13.3429 3.36391 13.4118L8.12506 14.3642V20.311C8.12478 20.6325 8.21991 20.9469 8.39841 21.2143C8.57691 21.4817 8.83076 21.6901 9.12779 21.8132C9.42483 21.9362 9.7517 21.9683 10.067 21.9055C10.3823 21.8426 10.6719 21.6876 10.899 21.4601L13.534 18.8253L17.5331 22.3444C17.8275 22.6059 18.2075 22.7505 18.6012 22.7511C18.7724 22.7509 18.9425 22.7239 19.1053 22.6711C19.3739 22.5859 19.6154 22.4318 19.8058 22.2241C19.9963 22.0165 20.1289 21.7625 20.1905 21.4875L24.0107 4.81786C24.0772 4.52959 24.0636 4.22862 23.9713 3.94754C23.879 3.66647 23.7115 3.41602 23.487 3.22333V3.22323ZM8.74926 12.8317L3.68282 11.8185L17.8692 6.24512L8.74926 12.8317ZM9.75006 20.3102V15.4953L12.3115 17.7493L9.75006 20.3102ZM18.6065 21.1244L10.2386 13.7605L22.2885 5.05795L18.6065 21.1244Z" fill="white"/>
</svg>
